<svg width="227" height="40" viewBox="0 0 227 40" fill="none" xmlns="http://www.w3.org/2000/svg">
<path d="M116.562 0H6.67983L8.39233e-05 40H109.771L116.562 0Z" fill="#C70100"/>
<path d="M115.448 0H227L220.209 40H108.657L115.448 0Z" fill="url(#paint0_linear_223_5066)"/>
<path d="M140.275 6.45972L135.599 33.7889H139.051L142.279 16.1492L141.945 33.7889H145.619L151.408 15.6523L148.402 33.7889H151.965L156.529 6.45972H151.185L145.396 24.5964L145.619 6.45972H140.275Z" fill="white"/>
<path d="M159.758 6.45972H170L169.332 10.1864H162.764L161.539 18.0125H166.66L166.215 21.8634L160.871 21.9877L159.535 30.0622H165.992L165.324 33.7889H154.859L159.758 6.45972Z" fill="white"/>
<path d="M202.174 6.21118H196.608L187.812 33.913H191.264L192.934 28.6957H197.609V33.6646H201.395L202.174 6.21118Z" fill="white"/>
<path d="M194.047 25.0931L198.167 11.4285L197.833 25.0931H194.047Z" fill="#FB9002"/>
<path d="M167.662 34.0373L172.443 6.21118L180.131 6.33541C182.628 6.33541 183.86 9.55788 183.582 10.8075L181.133 28.0745C180.467 31.4484 178.461 33.4161 176.568 33.913L167.662 34.0373Z" fill="white"/>
<path d="M172.004 30.0621L175.455 10.4348H177.681C179.017 10.4348 179.388 11.7599 179.24 12.4224L176.791 26.8323C176.435 28.6211 175.529 30.0621 175.121 30.0621H172.004Z" fill="#FE8707"/>
<path d="M190.484 6.45972H186.922L182.023 33.9131H185.92L190.484 6.45972Z" fill="white"/>
<path d="M24.938 6.21118L20.2622 33.7888H24.1587L25.4947 25.4658L27.1646 22.9814L28.9459 33.7888H33.1764L30.3932 18.6335L37.9636 6.21118H33.9557L26.942 17.764L28.9459 6.21118H24.938Z" fill="white"/>
<path d="M48.0941 6.21118H42.5277L33.7327 33.913H37.1839L38.8538 28.6957H43.5296V33.6646H47.3148L48.0941 6.21118Z" fill="white"/>
<path d="M39.9668 25.0931L44.086 11.4285L43.752 25.0931H39.9668Z" fill="#C70100"/>
<path d="M76.4835 6.21118H70.9171L62.1221 33.913H65.5733L67.2432 28.6957H71.919V33.6646H75.7042L76.4835 6.21118Z" fill="white"/>
<path d="M68.3562 25.0931L72.4754 11.4285L72.1414 25.0931H68.3562Z" fill="#C70100"/>
<path d="M53.8833 6.33545H64.0583L63.6803 10.0622H56.8892L55.9986 16.5218C55.9986 16.5218 58.3365 16.5218 59.2271 16.646C60.1178 16.7702 62.3326 17.764 62.567 20.2485C62.8014 22.733 62.6784 24.969 61.7877 27.8261C60.9154 30.6245 59.2271 33.0435 57.4459 33.6646C55.6646 34.2858 49.2075 33.6646 49.2075 33.6646L53.8833 6.33545Z" fill="#FEFDFF"/>
<path d="M53.772 29.9379L55.3306 20.6211H57.4458C58.7818 20.6211 58.8189 21.9461 58.6705 22.6087L57.7798 27.5776C57.4236 29.3664 56.5181 29.8136 56.1099 29.8136L53.772 29.9379Z" fill="#B60108"/>
<path d="M77.3743 33.6646L82.0501 6.33545H87.7279H88.9525L89.9545 6.5839C92.2924 7.32924 92.515 9.56526 92.6264 10.0622C92.7154 10.4597 92.3666 13.292 92.1811 14.6584C91.9139 17.0435 91.2533 19.1305 90.9564 19.8758C90.6002 21.4659 88.0619 23.2299 86.5033 23.2299H82.9407L81.1595 33.6646H77.3743Z" fill="white"/>
<path d="M83.7197 19.2548L85.2783 9.93799H87.3936C88.7295 9.93799 88.7667 11.263 88.6182 11.9256L87.7276 16.8945C87.3713 18.6833 86.4658 19.1305 86.0576 19.1305L83.7197 19.2548Z" fill="#B60108"/>
<defs>
<linearGradient id="paint0_linear_223_5066" x1="108.657" y1="16.8944" x2="230.353" y2="19.4888" gradientUnits="userSpaceOnUse">
<stop stop-color="#ED5C0B"/>
<stop offset="1" stop-color="#FC9700"/>
</linearGradient>
</defs>
</svg>
